<svg width="60" height="60" viewBox="0 0 60 60" fill="none" xmlns="http://www.w3.org/2000/svg">
<path d="M30 49.5938L29.25 48.9375C12.1875 35.0625 7.59375 30.1875 7.59375 22.2188C7.59375 15.6563 12.9375 10.4062 19.4062 10.4062C24.8438 10.4062 27.9375 13.5 30 15.8437C32.0625 13.5 35.1562 10.4062 40.5937 10.4062C47.1562 10.4062 52.4063 15.75 52.4063 22.2188C52.4063 30.1875 47.8125 35.0625 30.75 48.9375L30 49.5938ZM19.4062 12.8437C14.25 12.8437 10.0312 17.0625 10.0312 22.2188C10.0312 29.0625 14.3437 33.5625 30 46.4062C45.6562 33.5625 49.9687 29.0625 49.9687 22.2188C49.9687 17.0625 45.75 12.8437 40.5937 12.8437C35.9062 12.8437 33.375 15.6562 31.4062 17.9062L30 19.5L28.5938 17.9062C26.625 15.6562 24.0938 12.8437 19.4062 12.8437Z" fill="#F07F30"/>
</svg>
