<svg width="31" height="35" viewBox="0 0 31 35" fill="none" xmlns="http://www.w3.org/2000/svg">
<g clip-path="url(#clip0_109_80)">
<path d="M30.4275 8.30711C30.2495 8.09809 30.0353 7.93279 29.7981 7.82157C29.5609 7.71035 29.306 7.65559 29.0492 7.66073H1.95075C1.42066 7.66073 0.964775 7.87619 0.583106 8.30711C0.398675 8.50424 0.251829 8.74181 0.151564 9.00527C0.0512987 9.26872 -0.000275166 9.55251 1.10408e-06 9.83925C1.10408e-06 10.4377 0.190836 10.9525 0.572505 11.3834L14.143 26.6929C14.5246 27.1238 14.9699 27.3393 15.5 27.3393C16.0301 27.3393 16.4754 27.1238 16.857 26.6929L30.4275 11.3714C30.7986 10.9525 31 10.4377 31 9.83925C31 9.24076 30.7986 8.73802 30.4169 8.30711H30.4275Z" fill="#F07F30"/>
</g>
<defs>
<clipPath id="clip0_109_80">
<rect width="31" height="35" fill="white"/>
</clipPath>
</defs>
</svg>
